<svg xmlns="http://www.w3.org/2000/svg" width="259.619" height="243.49" viewBox="0 0 259.619 243.49">
  <g id="Layer_x0020_1" transform="translate(78.41)">
    <g id="_1158565635344" transform="translate(-78.41)">
      <path id="Path_13434" data-name="Path 13434" d="M1695.434,817.6c10.694,8.007,27.529,41.079,36.649,48.051,12.348,9.438,20.792,1.4,31.448-9.054,15.368-15.081,29.545-22.7,35.558-24.277,10.535-2.763,18.627,7.8,19.644,18.7,1.577,16.9-2.537,31.8-8.866,47.011-5.151,12.378-40.668,62.263-66.517,65.649-11.431,1.5-18.511-5.432-29.723-17.332-14.36-15.243-21.668-25.54-31.375-46.648-6.141-13.358-11.219-32.961-12.384-48.484-.989-13.169,3.011-50.5,25.565-33.615Z" transform="translate(-1596.74 -779.335)" fill="#0a154b"/>
      <path id="Path_13435" data-name="Path 13435" d="M1979.152,1539.568c38.52-21.972,53.841-50.286,59.929-69.971l.976-20.436a8.008,8.008,0,0,0-8-8.462H1937.3a8.008,8.008,0,0,0-7.971,8.8l1.2,14.356.992,11.885,5.824,69.816a4.74,4.74,0,0,0,4.724,4.347h88.662a4.741,4.741,0,0,0,4.736-4.514l2.194-46.031C2016.376,1523.47,1979.152,1539.568,1979.152,1539.568Z" transform="translate(-1845.462 -1380.544)" fill="#50aeb5"/>
      <path id="Path_13436" data-name="Path 13436" d="M2697.263,808.037l-1.342-25.788a18.911,18.911,0,0,0-18.694-17.479L2667,764.641h-.241a19.066,19.066,0,0,0-18.928,17.4l-1.439,25.984a2.8,2.8,0,0,0,2.556,3.029l.238.01a2.805,2.805,0,0,0,2.792-2.568l1.441-25.986a13.4,13.4,0,0,1,13.313-12.262h.2l10.231.129a13.327,13.327,0,0,1,13.175,12.318l1.344,25.786a2.794,2.794,0,0,0,2.778,2.582l.238-.01a2.8,2.8,0,0,0,2.571-3.015Z" transform="translate(-2532.605 -732.712)" fill="#0a154b"/>
      <path id="Path_13437" data-name="Path 13437" d="M2943.816,1505.549c-13.093,13.434-27.7,23.409-41.776,29.374a142.309,142.309,0,0,0,27.557-10.452c42.234-21.128,66.576-58.031,54.371-82.424a29.645,29.645,0,0,0-6.188-8.286C2978.661,1454.861,2966.44,1482.331,2943.816,1505.549Z" transform="translate(-2777.592 -1373.894)" fill="#266c87"/>
      <path id="Path_13438" data-name="Path 13438" d="M4737.826,384.84a18.948,18.948,0,1,1-18.946,18.948A18.959,18.959,0,0,1,4737.826,384.84Z" transform="translate(-4518.57 -368.771)" fill="#003a2b"/>
      <path id="Path_13439" data-name="Path 13439" d="M1412.012,0a16.172,16.172,0,1,1-16.172,16.172A16.18,16.18,0,0,1,1412.012,0Z" transform="translate(-1334.283)" fill="#003a2b"/>
      <path id="Path_13440" data-name="Path 13440" d="M1899.464,1079.24a77.436,77.436,0,0,0,24.668,17.345,84.006,84.006,0,0,1-16.272-6.172c-24.938-12.476-39.312-34.266-32.1-48.67a17.515,17.515,0,0,1,3.653-4.893c-.52,12.46,6.7,28.681,20.056,42.39Z" transform="translate(-1792.377 -993.557)" fill="#266c87"/>
      <g id="Group_211" data-name="Group 211" transform="translate(0 198.054)">
        <text id="Family" transform="translate(0 35)" fill="#fffaf5" font-size="39" font-family="High Tower Text"><tspan x="0" y="0">Family</tspan></text>
        <text id="Mart" transform="translate(176.619 35.436)" fill="#fffaf5" font-size="39" font-family="High Tower Text"><tspan x="0" y="0">Mart</tspan></text>
        <text id="E" transform="translate(149.515 33.856)" fill="#8ffffb" font-size="34" font-family="High Tower Text"><tspan x="0" y="0">E</tspan></text>
      </g>
    </g>
  </g>
</svg>
